<svg id="svg" version="1.1" xmlns="http://www.w3.org/2000/svg" xmlns:xlink="http://www.w3.org/1999/xlink" width="400" height="51.428021925185114" viewBox="0, 0, 400,51.428021925185114"><g id="svgg"><path id="path0" d="M120.833 0.102 C 106.167 1.887,96.066 15.342,98.574 29.750 C 99.340 34.146,101.450 39.012,103.535 41.187 C 103.656 41.313,104.159 41.886,104.654 42.460 C 117.074 56.873,141.372 52.415,148.158 34.478 L 148.765 32.873 148.958 34.486 C 150.405 46.587,163.073 54.110,175.333 50.148 C 191.690 44.863,193.263 21.588,177.771 14.087 C 165.248 8.023,150.296 15.722,148.973 28.917 C 148.881 29.833,148.771 30.827,148.729 31.125 L 148.652 31.667 142.258 31.667 L 135.865 31.667 135.329 32.625 C 132.172 38.266,126.713 40.938,121.130 39.576 C 108.755 36.555,107.107 17.613,118.751 12.234 C 124.904 9.391,131.968 11.994,135.191 18.292 L 135.895 19.667 142.447 19.667 L 149.000 19.667 149.000 19.302 C 149.000 18.200,147.648 14.596,146.546 12.760 C 141.262 3.959,130.929 -1.127,120.833 0.102 M0.000 0.899 C 0.000 0.976,1.130 5.406,1.833 8.083 C 2.098 9.092,2.660 11.267,3.083 12.917 C 3.919 16.175,4.658 19.036,6.894 27.667 C 7.215 28.904,7.787 31.117,8.166 32.583 C 8.544 34.050,9.107 36.225,9.416 37.417 C 9.725 38.608,10.282 40.765,10.655 42.208 C 11.028 43.652,11.633 45.984,12.000 47.391 C 12.367 48.798,12.667 49.998,12.667 50.058 C 12.667 50.118,15.254 50.167,18.417 50.167 C 21.579 50.167,24.167 50.121,24.167 50.066 C 24.167 50.011,25.377 44.742,26.857 38.358 C 30.945 20.717,31.471 18.474,31.533 18.411 C 31.565 18.379,32.694 23.130,34.043 28.968 C 35.391 34.807,36.769 40.746,37.104 42.167 C 37.438 43.587,37.990 45.950,38.329 47.417 L 38.946 50.083 44.503 50.083 L 50.060 50.083 50.515 48.333 C 50.765 47.371,51.230 45.608,51.548 44.417 C 52.622 40.387,54.064 34.949,55.748 28.583 C 56.160 27.025,56.767 24.738,57.096 23.500 C 57.426 22.262,57.904 20.462,58.159 19.500 C 58.415 18.537,58.942 16.550,59.332 15.083 C 62.055 4.845,63.000 1.220,63.000 1.015 C 63.000 0.662,50.374 0.771,50.271 1.125 C 50.224 1.285,49.953 2.542,49.668 3.917 C 49.383 5.292,48.890 7.654,48.572 9.167 C 48.254 10.679,47.877 12.479,47.734 13.167 C 47.590 13.854,47.253 15.467,46.983 16.750 C 46.713 18.033,46.376 19.646,46.233 20.333 C 46.090 21.021,45.753 22.633,45.483 23.917 C 44.278 29.651,43.968 31.147,43.791 32.083 C 43.687 32.633,43.573 32.971,43.537 32.833 C 43.501 32.696,41.885 25.458,39.944 16.750 L 36.417 0.917 31.573 0.873 L 26.728 0.828 26.102 3.623 C 25.757 5.159,25.370 6.867,25.242 7.417 C 24.743 9.562,23.143 16.581,22.431 19.750 C 20.405 28.765,19.500 32.722,19.455 32.767 C 19.428 32.795,19.273 32.165,19.112 31.367 C 18.836 29.996,18.494 28.342,17.339 22.792 C 17.068 21.485,16.277 17.642,15.583 14.250 C 14.140 7.204,13.431 3.773,13.059 2.042 L 12.800 0.833 6.400 0.833 C 2.880 0.833,0.000 0.863,0.000 0.899 M219.500 8.515 L 219.500 16.198 218.638 15.422 C 213.503 10.806,204.173 10.787,198.000 15.381 C 187.911 22.889,187.904 40.242,197.988 47.844 C 204.460 52.722,215.427 52.333,219.303 47.087 L 219.917 46.257 219.964 48.212 L 220.011 50.167 225.339 50.167 L 230.667 50.167 230.667 25.500 L 230.667 0.833 225.083 0.833 L 219.500 0.833 219.500 8.515 M72.726 12.335 C 63.571 14.403,57.346 22.243,57.336 31.715 C 57.316 50.266,80.702 58.370,91.825 43.667 C 93.014 42.095,94.833 39.024,94.833 38.589 C 94.833 38.540,92.299 38.500,89.202 38.500 L 83.571 38.500 82.451 39.593 C 77.971 43.963,69.159 41.485,68.375 35.634 L 68.289 35.000 82.044 35.000 C 94.919 35.000,95.805 34.982,95.908 34.712 C 96.411 33.400,96.058 28.683,95.250 25.918 C 92.404 16.186,82.395 10.150,72.726 12.335 M247.583 12.316 C 229.829 16.179,226.300 40.286,242.226 48.903 C 252.176 54.287,263.734 50.327,269.064 39.708 L 269.671 38.500 263.927 38.500 L 258.184 38.500 257.748 39.071 C 254.620 43.173,247.051 42.661,244.158 38.153 C 243.685 37.416,243.000 35.683,243.000 35.224 C 243.000 35.038,245.363 35.000,256.821 35.000 L 270.643 35.000 270.761 34.050 C 272.408 20.873,260.325 9.543,247.583 12.316 M79.274 21.683 C 82.046 22.530,84.158 24.568,84.912 27.125 L 85.022 27.500 76.690 27.500 L 68.357 27.500 68.494 27.042 C 69.785 22.745,74.722 20.291,79.274 21.683 M253.726 21.599 C 256.600 22.343,259.006 24.575,259.594 27.042 L 259.703 27.500 251.417 27.500 L 243.131 27.500 243.240 27.042 C 244.191 23.056,249.238 20.436,253.726 21.599 M170.471 22.587 C 176.106 23.915,179.057 30.353,176.494 35.726 C 173.402 42.209,164.567 42.558,161.125 36.333 C 157.288 29.394,163.098 20.849,170.471 22.587 M213.981 22.813 C 223.616 26.183,221.366 40.447,211.143 40.800 C 203.080 41.079,198.624 32.267,203.516 25.718 C 205.666 22.841,210.346 21.542,213.981 22.813 " stroke="none" fill="#fcfcfc" fill-rule="evenodd"></path><path id="path1" d="M272.833 25.500 L 272.833 50.167 278.917 50.167 L 285.000 50.167 285.000 42.436 L 285.000 34.706 289.875 34.627 C 299.782 34.468,305.080 31.991,307.969 26.167 C 310.815 20.431,310.438 12.815,307.057 7.721 C 303.209 1.925,299.194 0.841,281.542 0.836 L 272.833 0.833 272.833 25.500 M311.333 25.500 L 311.333 50.167 316.833 50.167 L 322.333 50.167 322.333 25.500 L 322.333 0.833 316.833 0.833 L 311.333 0.833 311.333 25.500 M292.844 12.262 C 296.322 12.922,297.748 14.522,297.749 17.767 C 297.751 22.264,295.453 23.648,287.958 23.662 L 285.000 23.667 285.000 17.833 L 285.000 12.000 288.232 12.000 C 290.473 12.000,291.886 12.080,292.844 12.262 M371.333 12.327 C 366.129 13.503,362.183 16.881,361.105 21.083 C 359.444 27.558,362.755 31.641,372.167 34.722 C 377.996 36.631,379.165 37.434,379.166 39.536 C 379.168 43.244,372.447 43.422,371.462 39.741 L 371.264 39.000 365.741 39.000 L 360.217 39.000 360.360 39.914 C 361.400 46.543,366.754 50.923,374.250 51.279 C 383.355 51.711,389.926 46.850,390.283 39.417 C 390.589 33.043,387.381 29.863,378.083 27.323 C 373.563 26.089,372.067 25.156,371.881 23.456 C 371.536 20.307,377.720 19.860,378.249 22.996 L 378.363 23.667 383.765 23.667 L 389.167 23.667 389.167 23.052 C 389.167 20.194,386.985 16.382,384.287 14.526 C 381.094 12.328,375.515 11.381,371.333 12.327 M325.042 26.375 C 325.109 41.866,325.101 41.800,327.368 45.439 C 331.776 52.513,344.610 53.443,348.329 46.958 L 348.830 46.083 348.832 48.125 L 348.833 50.167 354.083 50.167 L 359.333 50.167 359.333 31.667 L 359.333 13.167 353.750 13.167 L 348.167 13.167 348.167 24.215 C 348.167 36.251,348.164 36.291,347.208 38.047 C 345.039 42.033,338.184 41.840,336.675 37.750 C 336.083 36.149,336.006 34.512,336.003 23.542 L 336.000 13.167 330.493 13.167 L 324.985 13.167 325.042 26.375 M393.000 46.000 L 393.000 50.167 396.500 50.167 L 400.000 50.167 400.000 46.000 L 400.000 41.833 396.500 41.833 L 393.000 41.833 393.000 46.000 " stroke="none" fill="#e41c54" fill-rule="evenodd"></path><path id="path2" d="" stroke="none" fill="#f0c4100" fill-rule="evenodd"></path><path id="path3" d="" stroke="none" fill="#f0c4100" fill-rule="evenodd"></path><path id="path4" d="" stroke="none" fill="#f0c4100" fill-rule="evenodd"></path></g></svg>